<?xml version="1.0" encoding="utf-8"?>
<!-- Generator: Adobe Illustrator 26.0.3, SVG Export Plug-In . SVG Version: 6.00 Build 0)  -->
<svg version="1.1" id="Capa_1" xmlns="http://www.w3.org/2000/svg" xmlns:xlink="http://www.w3.org/1999/xlink" x="0px" y="0px"
	 viewBox="0 0 448 512" style="enable-background:new 0 0 448 512;" xml:space="preserve">
<style type="text/css">
	.st0{fill:#7B796C;}
</style>
<path class="st0" d="M112,112C112,50.1,162.1,0,224,0s112,50.1,112,112v48h64c26.5,0,48,21.5,48,48v208c0,53-43,96-96,96H96
	c-53,0-96-43-96-96V208c0-26.5,21.5-48,48-48h64V112z M160,160h128v-48c0-35.3-28.7-64-64-64s-64,28.7-64,64V160z M136,256
	c13.3,0,24-10.7,24-24s-10.7-24-24-24s-24,10.7-24,24S122.7,256,136,256z M312,208c-13.3,0-24,10.7-24,24s10.7,24,24,24
	s24-10.7,24-24S325.3,208,312,208z"/>
</svg>
